<svg width="1440" height="500" viewBox="0 0 1440 500" fill="none" preserveAspectRatio="none" xmlns="http://www.w3.org/2000/svg">
<path d="M1440 57.5221L1432 59.5296L1424 61.5347L1416 63.5348L1408 65.5276L1400 67.5107L1392 69.4816L1384 71.438L1376 73.3774L1368 75.2974L1360 77.1958L1352 79.0703L1344 80.9185L1336 82.7382L1328 84.5271L1320 86.2832L1312 88.0042L1304 89.6881L1296 91.3328L1288 92.9363L1280 94.4966L1272 96.0119L1264 97.4804L1256 98.9001L1248 100.269L1240 101.587L1232 102.85L1224 104.059L1216 105.21L1208 106.304L1200 107.338L1192 108.311L1184 109.223L1176 110.071L1168 110.856L1160 111.575L1152 112.229L1144 112.816L1136 113.336L1128 113.787L1120 114.17L1112 114.484L1104 114.729L1096 114.904L1088 115.009L1080 115.044L1072 115.009L1064 114.904L1056 114.729L1048 114.484L1040 114.17L1032 113.787L1024 113.336L1016 112.816L1008 112.229L1000 111.575L992 110.856L984 110.071L976 109.223L968 108.311L960 107.338L952 106.304L944 105.21L936 104.059L928 102.85L920 101.587L912 100.269L904 98.9001L896 97.4804L888 96.0119L880 94.4966L872 92.9363L864 91.3328L856 89.6881L848 88.0042L840 86.2832L832 84.5271L824 82.7382L816 80.9185L808 79.0703L800 77.1958L792 75.2974L784 73.3774L776 71.438L768 69.4816L760 67.5107L752 65.5276L744 63.5348L736 61.5347L728 59.5296L720 57.5221L712 55.5146L704 53.5096L696 51.5095L688 49.5166L680 47.5335L672 45.5626L664 43.6063L656 41.6669L648 39.7468L640 37.8484L632 35.974L624 34.1258L616 32.3061L608 30.5171L600 28.7611L592 27.04L584 25.3562L576 23.7115L568 22.108L560 20.5476L552 19.0323L544 17.5639L536 16.1442L528 14.7748L520 13.4576L512 12.1941L504 10.9858L496 9.83413L488 8.74059L480 7.70652L472 6.73311L464 5.82158L456 4.97305L448 4.18853L440 3.46901L432 2.81535L424 2.22831L416 1.70867L408 1.25701L400 0.873901L392 0.559818L384 0.315122L376 0.140123L368 0.0350568L360 0L352 0.0350568L344 0.140123L336 0.315122L328 0.559818L320 0.873901L312 1.25701L304 1.70867L296 2.22831L288 2.81535L280 3.46901L272 4.18853L264 4.97305L256 5.82158L248 6.73311L240 7.70652L232 8.74059L224 9.83413L216 10.9858L208 12.1941L200 13.4576L192 14.7748L184 16.1442L176 17.5639L168 19.0323L160 20.5476L152 22.108L144 23.7115L136 25.3562L128 27.04L120 28.7611L112 30.5171L104 32.3061L96 34.1258L88.0001 35.974L80.0001 37.8484L72 39.7468L64 41.6669L56 43.6063L48.0001 45.5626L40 47.5335L32 49.5166L24 51.5095L16.0001 53.5096L8.00006 55.5146L3.8147e-05 57.5221V500H1440V57.5221Z" fill="#2563EB"/>
</svg>
