<svg width="1440" height="500" viewBox="0 0 1440 500" fill="none" preserveAspectRatio="none" xmlns="http://www.w3.org/2000/svg">
<path d="M1088 0.0751953L1096 0.301758L1104 0.679688L1112 1.20703L1120 1.88477L1128 2.71094L1136 3.68555L1144 4.80566L1152 6.07227L1160 7.48145L1168 9.0332L1176 10.7256L1184 12.5557L1192 14.5215L1200 16.6211L1208 18.8516L1216 21.21L1224 23.6934L1232 26.2998L1240 29.0244L1248 31.8652L1256 34.8184L1264 37.8809L1272 41.0479L1280 44.3154L1288 47.6807L1296 51.1396L1304 54.6865L1312 58.3184L1320 62.0303L1328 65.8174L1336 69.6758L1344 73.6006L1352 77.5859L1360 81.6289L1368 85.7236L1376 89.8643L1384 94.0469L1392 98.2666L1400 102.518L1408 106.794L1416 111.093L1424 115.406L1432 119.73L1440 124.061V500H0V124.061L8 128.39L16 132.714L24 137.028L32 141.326L40 145.603L48 149.854L56 154.073L64 158.256L72 162.396L80 166.491L88 170.534L96 174.52L104 178.444L112 182.303L120 186.09L128 189.802L136 193.434L144 196.98L152 200.439L160 203.805L168 207.072L176 210.239L184 213.302L192 216.255L200 219.096L208 221.821L216 224.427L224 226.911L232 229.27L240 231.499L248 233.599L256 235.564L264 237.395L272 239.087L280 240.639L288 242.049L296 243.314L304 244.436L312 245.409L320 246.235L328 246.913L336 247.44L344 247.818L352 248.045L360 248.12L368 248.045L376 247.818L384 247.44L392 246.913L400 246.235L408 245.409L416 244.436L424 243.314L432 242.049L440 240.639L448 239.087L456 237.395L464 235.564L472 233.599L480 231.499L488 229.27L496 226.911L504 224.427L512 221.821L520 219.096L528 216.255L536 213.302L544 210.239L552 207.072L560 203.805L568 200.439L576 196.98L584 193.434L592 189.802L600 186.09L608 182.303L616 178.444L624 174.52L632 170.534L640 166.491L648 162.396L656 158.256L664 154.073L672 149.854L680 145.603L688 141.326L696 137.028L704 132.714L712 128.39L720 124.061L728 119.73L736 115.406L744 111.093L752 106.794L760 102.518L768 98.2666L776 94.0469L784 89.8643L792 85.7236L800 81.6289L808 77.5859L816 73.6006L824 69.6758L832 65.8174L840 62.0303L848 58.3184L856 54.6865L864 51.1396L872 47.6807L880 44.3154L888 41.0479L896 37.8809L904 34.8184L912 31.8652L920 29.0244L928 26.2998L936 23.6934L944 21.21L952 18.8516L960 16.6211L968 14.5215L976 12.5557L984 10.7256L992 9.0332L1000 7.48145L1008 6.07227L1016 4.80566L1024 3.68555L1032 2.71094L1040 1.88477L1048 1.20703L1056 0.679688L1064 0.301758L1072 0.0751953L1080 0L1088 0.0751953Z" fill="#2C6CCE" fill-opacity="0.8"/>
</svg>
