<svg width="1440" height="500" viewBox="0 0 1440 500" fill="none" preserveAspectRatio="none" xmlns="http://www.w3.org/2000/svg">
<path fill-rule="evenodd" clip-rule="evenodd" d="M0 130.063L48 147.679C96 165.295 192 200.527 288 182.911C384 165.295 480 94.8308 576 50.7907C672 6.75053 768 -10.8655 864 6.75053C960 24.3666 1056 77.2147 1152 121.255C1248 165.295 1344 200.527 1392 218.143L1440 235.759V500H1392C1344 500 1248 500 1152 500C1056 500 960 500 864 500C768 500 672 500 576 500C480 500 384 500 288 500C192 500 96 500 48 500H0V130.063Z" fill="#2563EB" fill-opacity="0.4"/>
</svg>
